<?xml version="1.0" encoding="iso-8859-1"?>
<!-- Uploaded to: SVG Repo, www.svgrepo.com, Generator: SVG Repo Mixer Tools -->
<svg fill="#000000" height="800px" width="800px" version="1.1" id="Capa_1" xmlns="http://www.w3.org/2000/svg" xmlns:xlink="http://www.w3.org/1999/xlink" 
	 viewBox="0 0 490.013 490.013" xml:space="preserve">
<g>
	<g>
		<g>
			<path d="M42.888,53.057l28.8,0.8c-0.4-26.3-5.8-43.9-15.9-53.7h-10.6h-0.4c-9.7-0.8-44.7,10.3-44.7,55.7
				c-0.8,27.1,3.5,59.6,27.2,60.8c1.7,0.1,15.2-6.6,5.1-50.6C31.588,62.857,31.888,53.057,42.888,53.057z"/>
			<path d="M66.588,116.557c2.3-16.5,3.9-30.2,4.3-42.4l-15.2-0.4c3.5,17.7,3.1,32.2-0.4,42.8
				C55.288,116.557,66.588,116.557,66.588,116.557z"/>
			<path d="M362.488,431.157h-260.9c7.4,18.4,10.1,42.8,5.4,58.8h255.5c10.9,0,20.2-13.3,20.2-29.4S373.388,431.157,362.488,431.157
				z"/>
			<path d="M84.088,410.357h245.7c-3-71.3,19.8-173,20.2-175.7l-71.9,72.2l-71.5,14.5c6.5,4.2,5.4,12.6,1.2,16.1
				c-8.6,7.8-21,9-30.3,2.4c-8.2-5.9-14.7-18.5-12.8-32.9c-24.3,3.9-29.8-4.3-29.6-30.2c-8.6,28.2-15.6,57.7-21,87.1
				c-1.7,9.5-15,12-19.4,2.7l-16.3-35.3c-2.3-5.1,0-11.4,5.1-13.7c5.1-2.4,11.3,0,13.6,5.1l3.1,6.7c6.2-27.8,13.6-54.9,22.9-81.2
				c2.9-8.9,12-8.2,17.1-3.9c10.5,10.2,16.7,26.3,17.5,43.1c8.3,2.2,21.4-10.2,25.7,3.5l13.2-66.3l167.8-169.6
				c-1.9-13.3-4.3-26.3-7.8-38.4c-2.7-9.8-9.3-16.5-16.3-16.5h-259.7c8.2,15.3,11.7,36.5,11.3,64.7c1.4,27.2-12.2,99.5-18.7,134.9
				c-15.6,84.7-33,180.4-16.7,254.9c5.1,23.5,14,35.3,26.8,35.3l0,0l0,0c0.4,0,1.2,0,2.3-2.4c5.8-12.2,1.2-45.9-10.1-60
				C70.388,420.057,73.988,410.357,84.088,410.357z"/>
			<polygon points="241.488,246.357 421.188,65.157 402.088,45.957 402.088,45.957 222.488,227.157 			"/>
			<polygon points="212.788,246.757 201.888,301.257 255.888,290.357 			"/>
			<path d="M486.488,49.857l-35.4-35.7c-4.7-4.7-12.4-4.7-17.5,0l-17.1,17.3l0,0l52.9,53.3l0,0l17.1-17.3
				C491.188,62.857,491.188,54.957,486.488,49.857z"/>
			<polygon points="435.588,80.057 256.288,261.257 275.388,280.557 454.988,99.257 			"/>
		</g>
	</g>
</g>
</svg>