<?xml version="1.0" encoding="iso-8859-1"?>
<!-- Uploaded to: SVG Repo, www.svgrepo.com, Generator: SVG Repo Mixer Tools -->
<svg fill="#000000" height="800px" width="800px" version="1.1" id="Layer_1" xmlns="http://www.w3.org/2000/svg" xmlns:xlink="http://www.w3.org/1999/xlink" 
	 viewBox="0 0 488 488" xml:space="preserve">
<g transform="translate(0 -540.36)">
	<g>
		<g>
			<path d="M478.001,967.169L478.001,967.169l-20.498,0v-30.395c0-5.499-4.5-9.998-9.999-9.998h-31.196V693.012h61.593
				c4.5,0,8.499-3.1,9.699-7.499c1.2-4.399-0.8-8.999-4.699-11.298l-233.973-132.58c-3.1-1.7-6.799-1.7-9.899,0L5.055,674.214
				c-4,2.2-5.899,6.899-4.699,11.298c1.2,4.399,5.099,7.499,9.699,7.499h61.593v233.764H40.451c-5.499,0-9.999,4.499-9.999,9.998
				v30.395H10.055c-5.499,0-9.999,4.499-9.999,9.998v41.194c0,5.499,4.499,9.999,9.999,9.999h467.946
				c5.499,0,9.999-4.499,9.999-9.999v-41.194C488,971.669,483.501,967.169,478.001,967.169z M47.951,673.015l196.078-111.083
				l196.077,111.083H47.951z M396.411,693.012v233.764h-40.995V693.012H396.411z M335.418,693.012v233.764h-50.894V693.012H335.418z
				 M264.526,693.012v233.764H223.53V693.012H264.526z M203.533,693.012v233.764h-50.894V693.012H203.533z M132.641,693.012v233.764
				H91.646V693.012H132.641z M50.55,946.773h386.956v20.397H50.55V946.773z M468.002,1008.363H20.054v-21.197h427.451h20.498
				V1008.363z"/>
			<path d="M319.819,633.221l-70.892-40.394c-3.1-1.7-6.799-1.7-9.899,0l-70.892,40.394c-3.9,2.3-5.899,6.899-4.699,11.298
				c1.2,4.299,5.199,7.399,9.699,7.399H314.92c4.5,0,8.499-3.1,9.599-7.399C325.719,640.12,323.719,635.42,319.819,633.221z
				 M210.932,631.921l33.196-18.897l33.096,18.897H210.932z"/>
		</g>
	</g>
</g>
</svg>